# xmcd CD database file
#
# Track frame offsets:
#	150
#	33225
#	74150
#	101075
#	136288
#	152413
#	190090
#	214588
#	247963
#
# Disc length: 3698 seconds
#
# Revision: 0
# Processed by: cddbd v1.5.1PL0 Copyright (c) Steve Scherf et al.
# Submitted via: CDex 1.51
#
DISCID=780e7009
DTITLE=Harry Beckett - Passion And Possession
DYEAR=1991
DGENRE=Jazz
TTITLE0=For you - For Me
TTITLE1=Almost Unchanged
TTITLE2=Forgive 'N' Forget
TTITLE3=Summertime Ago
TTITLE4=The Time Keeper
TTITLE5=Passion And Possession
TTITLE6=The Question
TTITLE7=Floating Crystals 
TTITLE8=It Happens More And More
EXTD=Harry Beckett, Joachim Kühn, Django Bates, Keith Tippett YEAR: 1991
EXTT0=
EXTT1=
EXTT2=
EXTT3=
EXTT4=
EXTT5=
EXTT6=
EXTT7=
EXTT8=
PLAYORDER=
